<mxfile host="65bd71144e">
    <diagram id="HaeDoYv44683BEBgeu2v" name="Page-1">
        <mxGraphModel dx="913" dy="155" grid="1" gridSize="10" guides="1" tooltips="1" connect="1" arrows="1" fold="1" page="1" pageScale="1" pageWidth="850" pageHeight="1100" math="0" shadow="0">
            <root>
                <mxCell id="0"/>
                <mxCell id="1" parent="0"/>
                <mxCell id="17" value="Prototype in JS" style="text;strokeColor=none;align=center;fillColor=none;html=1;verticalAlign=middle;whiteSpace=wrap;rounded=0;fontFamily=Comic Sans MS;fontSize=24;fontColor=#33FFFF;" vertex="1" parent="1">
                    <mxGeometry x="230" y="20" width="340" height="30" as="geometry"/>
                </mxCell>
                <mxCell id="18" value="Array" style="text;strokeColor=none;align=center;fillColor=none;html=1;verticalAlign=middle;whiteSpace=wrap;rounded=0;fontFamily=Comic Sans MS;fontSize=24;fontColor=#33FFFF;" vertex="1" parent="1">
                    <mxGeometry x="130" y="150" width="60" height="30" as="geometry"/>
                </mxCell>
                <mxCell id="19" value="Function" style="text;strokeColor=none;align=center;fillColor=none;html=1;verticalAlign=middle;whiteSpace=wrap;rounded=0;fontFamily=Comic Sans MS;fontSize=24;fontColor=#33FFFF;" vertex="1" parent="1">
                    <mxGeometry x="140" y="80" width="60" height="30" as="geometry"/>
                </mxCell>
                <mxCell id="20" value="String" style="text;strokeColor=none;align=center;fillColor=none;html=1;verticalAlign=middle;whiteSpace=wrap;rounded=0;fontFamily=Comic Sans MS;fontSize=24;fontColor=#33FFFF;" vertex="1" parent="1">
                    <mxGeometry x="130" y="220" width="60" height="30" as="geometry"/>
                </mxCell>
                <mxCell id="21" value="" style="edgeStyle=none;orthogonalLoop=1;jettySize=auto;html=1;fontFamily=Comic Sans MS;fontSize=24;fontColor=#33FFFF;" edge="1" parent="1">
                    <mxGeometry width="100" relative="1" as="geometry">
                        <mxPoint x="230" y="100" as="sourcePoint"/>
                        <mxPoint x="360" y="150" as="targetPoint"/>
                        <Array as="points"/>
                    </mxGeometry>
                </mxCell>
                <mxCell id="22" value="" style="edgeStyle=none;orthogonalLoop=1;jettySize=auto;html=1;fontFamily=Comic Sans MS;fontSize=24;fontColor=#33FFFF;" edge="1" parent="1">
                    <mxGeometry width="100" relative="1" as="geometry">
                        <mxPoint x="210" y="170" as="sourcePoint"/>
                        <mxPoint x="360" y="170" as="targetPoint"/>
                        <Array as="points"/>
                    </mxGeometry>
                </mxCell>
                <mxCell id="23" value="" style="edgeStyle=none;orthogonalLoop=1;jettySize=auto;html=1;fontFamily=Comic Sans MS;fontSize=24;fontColor=#33FFFF;" edge="1" parent="1">
                    <mxGeometry width="100" relative="1" as="geometry">
                        <mxPoint x="210" y="234.5" as="sourcePoint"/>
                        <mxPoint x="360" y="190" as="targetPoint"/>
                        <Array as="points"/>
                    </mxGeometry>
                </mxCell>
                <mxCell id="25" value="Object&amp;nbsp;" style="text;strokeColor=none;align=center;fillColor=none;html=1;verticalAlign=middle;whiteSpace=wrap;rounded=0;fontFamily=Comic Sans MS;fontSize=24;fontColor=#33FFFF;" vertex="1" parent="1">
                    <mxGeometry x="390" y="160" width="60" height="30" as="geometry"/>
                </mxCell>
                <mxCell id="26" value="" style="edgeStyle=none;orthogonalLoop=1;jettySize=auto;html=1;fontFamily=Comic Sans MS;fontSize=24;fontColor=#33FFFF;" edge="1" parent="1">
                    <mxGeometry width="100" relative="1" as="geometry">
                        <mxPoint x="470" y="180" as="sourcePoint"/>
                        <mxPoint x="580" y="180" as="targetPoint"/>
                        <Array as="points"/>
                    </mxGeometry>
                </mxCell>
                <mxCell id="27" value="Null" style="text;strokeColor=none;align=center;fillColor=none;html=1;verticalAlign=middle;whiteSpace=wrap;rounded=0;fontFamily=Comic Sans MS;fontSize=24;fontColor=#33FFFF;" vertex="1" parent="1">
                    <mxGeometry x="600" y="160" width="60" height="30" as="geometry"/>
                </mxCell>
                <mxCell id="28" value="Protypes in browser" style="text;strokeColor=none;align=center;fillColor=none;html=1;verticalAlign=middle;whiteSpace=wrap;rounded=0;fontFamily=Comic Sans MS;fontSize=24;fontColor=#33FFFF;" vertex="1" parent="1">
                    <mxGeometry x="90" y="320" width="290" height="30" as="geometry"/>
                </mxCell>
                <mxCell id="29" value="Example of function&amp;nbsp;" style="text;strokeColor=none;align=center;fillColor=none;html=1;verticalAlign=middle;whiteSpace=wrap;rounded=0;fontFamily=Comic Sans MS;fontSize=24;fontColor=#33FFFF;" vertex="1" parent="1">
                    <mxGeometry x="80" y="360" width="310" height="30" as="geometry"/>
                </mxCell>
                <mxCell id="30" value="User define Methods in js&amp;nbsp;" style="text;strokeColor=none;align=center;fillColor=none;html=1;verticalAlign=middle;whiteSpace=wrap;rounded=0;fontFamily=Comic Sans MS;fontSize=24;fontColor=#33FFFF;" vertex="1" parent="1">
                    <mxGeometry x="440" y="320" width="310" height="30" as="geometry"/>
                </mxCell>
                <mxCell id="32" value="globally methods in js&amp;nbsp;" style="text;strokeColor=none;align=center;fillColor=none;html=1;verticalAlign=middle;whiteSpace=wrap;rounded=0;fontFamily=Comic Sans MS;fontSize=24;fontColor=#33FFFF;" vertex="1" parent="1">
                    <mxGeometry x="430" y="375" width="280" as="geometry"/>
                </mxCell>
            </root>
        </mxGraphModel>
    </diagram>
    <diagram id="5GZhUWXGuKaJABtOfqQT" name="Page-2">
        <mxGraphModel dx="1096" dy="426" grid="1" gridSize="10" guides="1" tooltips="1" connect="1" arrows="1" fold="1" page="1" pageScale="1" pageWidth="850" pageHeight="1100" math="0" shadow="0">
            <root>
                <mxCell id="0"/>
                <mxCell id="1" parent="0"/>
            </root>
        </mxGraphModel>
    </diagram>
</mxfile>